<svg xmlns="http://www.w3.org/2000/svg" id="b3af702e-595a-4a1f-bd34-b4bf0e20f860" data-name="&#x421;&#x43B;&#x43E;&#x439; 1" viewBox="0 0 944.61 92.23"><defs><style>.f351a2a1-0bd3-4ba4-8534-f52e5c327e77{fill:#122083;}.ab0f3efc-52ae-4048-8838-b19ac1362aeb{fill:#ff9800;}</style></defs><path class="f351a2a1-0bd3-4ba4-8534-f52e5c327e77" d="M143.82,30.15s6-1.54,28.58-5.63C189.4,21.45,196,21,196,21,148.21-17.2,35.73,57.39,35.73,57.39,108.34,19.59,143.82,30.15,143.82,30.15Z"></path><path class="f351a2a1-0bd3-4ba4-8534-f52e5c327e77" d="M35.73,54.46C99.58,8.93,142.1,8.11,142.1,8.11,119.67-25.12,35.73,54.46,35.73,54.46Z"></path><path class="f351a2a1-0bd3-4ba4-8534-f52e5c327e77" d="M216.32,22.07S95.3,39.64,0,80.39L21.56,92.22s14.57,0,158.18,0C196,69,221.26,70.34,229.45,45.07Z"></path><path class="ab0f3efc-52ae-4048-8838-b19ac1362aeb" d="M305.6,59a35,35,0,0,1-2.25,12.82A28.1,28.1,0,0,1,287.13,88.1a34.38,34.38,0,0,1-12.73,2.27H250.77V27.53H274.4a34.38,34.38,0,0,1,12.73,2.27,28.06,28.06,0,0,1,16.22,16.35A35.11,35.11,0,0,1,305.6,59Zm-9.54,0a30.73,30.73,0,0,0-1.53-10,21.17,21.17,0,0,0-4.36-7.53,18.48,18.48,0,0,0-6.82-4.71,23.89,23.89,0,0,0-9-1.61H260.13V82.84H274.4a23.89,23.89,0,0,0,9-1.61,18.48,18.48,0,0,0,6.82-4.71,21.21,21.21,0,0,0,4.36-7.5A30.74,30.74,0,0,0,296.06,59Z"></path><path class="f351a2a1-0bd3-4ba4-8534-f52e5c327e77" d="M351.46,84a17,17,0,0,1-3.63,3.17,21.45,21.45,0,0,1-4.37,2.17,26.8,26.8,0,0,1-4.8,1.22,31.25,31.25,0,0,1-4.88.39,22.79,22.79,0,0,1-8.51-1.55,18.81,18.81,0,0,1-6.78-4.55A20.88,20.88,0,0,1,314,77.44a30.25,30.25,0,0,1-1.59-10.22,25.35,25.35,0,0,1,1.44-8.64,20.63,20.63,0,0,1,4.14-7,18.88,18.88,0,0,1,6.58-4.68,21.6,21.6,0,0,1,8.76-1.71,20.53,20.53,0,0,1,7.5,1.33,16.56,16.56,0,0,1,5.93,3.88,18,18,0,0,1,3.92,6.25,23.65,23.65,0,0,1,1.42,8.49,5.41,5.41,0,0,1-.44,2.65,1.78,1.78,0,0,1-1.62.68H320.92a23.47,23.47,0,0,0,1.14,6.94,14,14,0,0,0,2.77,4.92,11.09,11.09,0,0,0,4.23,2.93,14.84,14.84,0,0,0,5.47,1,16.34,16.34,0,0,0,4.92-.65A24.19,24.19,0,0,0,343,82.17c1-.51,1.85-1,2.54-1.43a3.54,3.54,0,0,1,1.81-.65,1.87,1.87,0,0,1,1.62.79Zm-7-20.83a14.64,14.64,0,0,0-.72-4.69,10.68,10.68,0,0,0-2.13-3.72,9.7,9.7,0,0,0-3.41-2.45,11.6,11.6,0,0,0-4.64-.87q-5.38,0-8.47,3.1a15.08,15.08,0,0,0-3.91,8.63Z"></path><path class="f351a2a1-0bd3-4ba4-8534-f52e5c327e77" d="M392.47,54.22a4.29,4.29,0,0,1-.77.77,1.71,1.71,0,0,1-1.07.28,2.52,2.52,0,0,1-1.46-.54,19.33,19.33,0,0,0-1.93-1.18,17.06,17.06,0,0,0-2.8-1.19,14.72,14.72,0,0,0-9.61.59,10.71,10.71,0,0,0-4,3.24,14.75,14.75,0,0,0-2.43,5.12,25.41,25.41,0,0,0-.83,6.79,25.2,25.2,0,0,0,.87,6.93,15,15,0,0,0,2.5,5.12,10.44,10.44,0,0,0,3.94,3.15A12,12,0,0,0,380,84.38a13,13,0,0,0,4.55-.68,14.51,14.51,0,0,0,3-1.47,20.23,20.23,0,0,0,2-1.46,2.41,2.41,0,0,1,1.62-.68,1.87,1.87,0,0,1,1.62.79L395.23,84a16.69,16.69,0,0,1-3.44,3.19,19.66,19.66,0,0,1-4.05,2.15,23,23,0,0,1-4.48,1.22,28.9,28.9,0,0,1-4.75.39,19.73,19.73,0,0,1-7.77-1.53A17.66,17.66,0,0,1,364.48,85a21.53,21.53,0,0,1-4.18-7.2,28.6,28.6,0,0,1-1.53-9.69A29.16,29.16,0,0,1,360.15,59a20.45,20.45,0,0,1,4.07-7.24,18.68,18.68,0,0,1,6.63-4.77,22.29,22.29,0,0,1,9-1.73,21.48,21.48,0,0,1,8.4,1.53,20.53,20.53,0,0,1,6.47,4.33Z"></path><path class="f351a2a1-0bd3-4ba4-8534-f52e5c327e77" d="M413.74,32.17a5.27,5.27,0,0,1-.49,2.25A6.17,6.17,0,0,1,412,36.3,5.95,5.95,0,0,1,407.78,38a5.46,5.46,0,0,1-2.23-.46,6,6,0,0,1-3.13-3.15,5.73,5.73,0,0,1-.46-2.25,5.9,5.9,0,0,1,.46-2.3,6,6,0,0,1,3.13-3.15,5.46,5.46,0,0,1,2.23-.46,5.77,5.77,0,0,1,2.28.46A5.92,5.92,0,0,1,412,28a6.29,6.29,0,0,1,1.29,1.88A5.43,5.43,0,0,1,413.74,32.17Zm-1.62,13.74V90.37h-8.54V45.91Z"></path><path class="f351a2a1-0bd3-4ba4-8534-f52e5c327e77" d="M424.5,90.37V45.91h5.12a2.08,2.08,0,0,1,2.23,1.71l.62,4.24a22.71,22.71,0,0,1,5.45-4.79,13,13,0,0,1,7-1.86,10.46,10.46,0,0,1,7.18,2.43,14,14,0,0,1,4,6.58,14,14,0,0,1,2.5-4.07,14.34,14.34,0,0,1,3.41-2.8,15.14,15.14,0,0,1,4-1.62,18,18,0,0,1,4.32-.52,16.92,16.92,0,0,1,6.32,1.11,12.53,12.53,0,0,1,4.7,3.27,14.28,14.28,0,0,1,2.94,5.29,23.59,23.59,0,0,1,1,7.18V90.37h-8.58V62.06q0-5-2.16-7.53A7.87,7.87,0,0,0,468.26,52a9.61,9.61,0,0,0-3.5.64,7.94,7.94,0,0,0-2.91,1.9,9.28,9.28,0,0,0-2,3.15,12.22,12.22,0,0,0-.72,4.38V90.37h-8.58V62.06c0-3.45-.68-6-2.05-7.62a7.46,7.46,0,0,0-6-2.45,9.56,9.56,0,0,0-5.12,1.45A16.4,16.4,0,0,0,433,57.37v33Z"></path><path class="f351a2a1-0bd3-4ba4-8534-f52e5c327e77" d="M533.82,45.91V90.37H528.7a2.19,2.19,0,0,1-2.28-1.7l-.61-4.47a29.3,29.3,0,0,1-3,2.8,18.38,18.38,0,0,1-7.18,3.57,18,18,0,0,1-4.33.5,16,16,0,0,1-6.45-1.22,12.8,12.8,0,0,1-4.66-3.44,14.69,14.69,0,0,1-2.85-5.32,23.19,23.19,0,0,1-1-6.87V45.91h8.58V74.22c0,3.18.73,5.66,2.18,7.42s3.7,2.65,6.7,2.65A12.66,12.66,0,0,0,520,82.74a21.21,21.21,0,0,0,5.34-4.27V45.91Z"></path><path class="f351a2a1-0bd3-4ba4-8534-f52e5c327e77" d="M572,53.57a2.36,2.36,0,0,1-.74.81,1.94,1.94,0,0,1-1,.24,3.21,3.21,0,0,1-1.55-.48c-.57-.32-1.26-.67-2.06-1A19.57,19.57,0,0,0,563.8,52a13.65,13.65,0,0,0-3.85-.49,11.64,11.64,0,0,0-3.35.46A8,8,0,0,0,554,53.28a5.64,5.64,0,0,0-1.62,1.93,5.16,5.16,0,0,0-.57,2.38,4,4,0,0,0,1,2.76,8.37,8.37,0,0,0,2.59,1.88,23.91,23.91,0,0,0,3.63,1.42c1.35.43,2.74.87,4.16,1.34s2.8,1,4.15,1.6A15.3,15.3,0,0,1,571,68.82,10.54,10.54,0,0,1,573.58,72a9.86,9.86,0,0,1,1,4.59,14.7,14.7,0,0,1-1.11,5.75A12.65,12.65,0,0,1,570.16,87a15.55,15.55,0,0,1-5.36,3,22.48,22.48,0,0,1-7.31,1.09A23,23,0,0,1,549,89.54a21.35,21.35,0,0,1-6.53-3.89l2-3.29a2.56,2.56,0,0,1,.87-.94,2.61,2.61,0,0,1,1.4-.33,3,3,0,0,1,1.71.62c.58.41,1.28.85,2.1,1.33a15.8,15.8,0,0,0,3,1.31,13.59,13.59,0,0,0,4.37.6,12.06,12.06,0,0,0,3.81-.55,7.81,7.81,0,0,0,2.69-1.49,6,6,0,0,0,1.6-2.17,6.43,6.43,0,0,0,.52-2.58,4.34,4.34,0,0,0-1-2.91,8.68,8.68,0,0,0-2.58-2,21.48,21.48,0,0,0-3.66-1.44q-2.05-.61-4.2-1.32a39.56,39.56,0,0,1-4.2-1.62,14.34,14.34,0,0,1-3.65-2.31,10.9,10.9,0,0,1-2.59-3.42,11.14,11.14,0,0,1-1-4.9,12,12,0,0,1,1.07-5,12.25,12.25,0,0,1,3.11-4.15,15.34,15.34,0,0,1,5-2.87,20.4,20.4,0,0,1,6.85-1.07,21.78,21.78,0,0,1,8,1.4,18.33,18.33,0,0,1,6.1,3.85Z"></path><path class="ab0f3efc-52ae-4048-8838-b19ac1362aeb" d="M626.68,27.53a35.39,35.39,0,0,1,10.51,1.4,20.21,20.21,0,0,1,7.39,4,15.81,15.81,0,0,1,4.36,6.19,22.09,22.09,0,0,1,1.42,8.05,21,21,0,0,1-1.53,8.12,17.52,17.52,0,0,1-4.51,6.37,20.73,20.73,0,0,1-7.42,4.14,32.82,32.82,0,0,1-10.22,1.46H617V90.37h-9.32V27.53Zm0,32.34a19.43,19.43,0,0,0,6.24-.92,12.56,12.56,0,0,0,4.51-2.6,10.84,10.84,0,0,0,2.73-4,14.14,14.14,0,0,0,.92-5.19,11.63,11.63,0,0,0-3.57-9q-3.57-3.28-10.83-3.28H617v25Z"></path><path class="f351a2a1-0bd3-4ba4-8534-f52e5c327e77" d="M666.11,54.44a20.41,20.41,0,0,1,5.17-6.87,11.75,11.75,0,0,1,10-2.16,6.77,6.77,0,0,1,2.25,1L683,52.82A1.38,1.38,0,0,1,681.52,54a10.81,10.81,0,0,1-1.84-.25,13.68,13.68,0,0,0-2.63-.24,10.39,10.39,0,0,0-3.63.59,8.61,8.61,0,0,0-2.82,1.75,12.15,12.15,0,0,0-2.21,2.85,29.21,29.21,0,0,0-1.8,3.83V90.37h-8.53V45.91H663a2.75,2.75,0,0,1,1.91.5,3.41,3.41,0,0,1,.72,1.77Z"></path><path class="f351a2a1-0bd3-4ba4-8534-f52e5c327e77" d="M725,84a17,17,0,0,1-3.63,3.17A21.27,21.27,0,0,1,717,89.37a26.48,26.48,0,0,1-4.79,1.22,31.25,31.25,0,0,1-4.88.39,22.79,22.79,0,0,1-8.51-1.55A18.81,18.81,0,0,1,692,84.88a20.88,20.88,0,0,1-4.47-7.44,30.25,30.25,0,0,1-1.59-10.22,25.35,25.35,0,0,1,1.44-8.64,20.63,20.63,0,0,1,4.14-7,18.88,18.88,0,0,1,6.58-4.68,21.6,21.6,0,0,1,8.76-1.71,20.53,20.53,0,0,1,7.5,1.33,16.56,16.56,0,0,1,5.93,3.88,18,18,0,0,1,3.92,6.25,23.87,23.87,0,0,1,1.42,8.49,5.41,5.41,0,0,1-.44,2.65,1.78,1.78,0,0,1-1.62.68H694.43a23.81,23.81,0,0,0,1.13,6.94,14,14,0,0,0,2.78,4.92,11,11,0,0,0,4.23,2.93,14.84,14.84,0,0,0,5.47,1,16.39,16.39,0,0,0,4.92-.65,24.19,24.19,0,0,0,3.59-1.42c1-.51,1.85-1,2.54-1.43a3.54,3.54,0,0,1,1.81-.65,1.87,1.87,0,0,1,1.62.79Zm-7-20.83a14.37,14.37,0,0,0-.73-4.69,10.5,10.5,0,0,0-2.12-3.72,9.7,9.7,0,0,0-3.41-2.45,11.6,11.6,0,0,0-4.64-.87q-5.38,0-8.47,3.1a15.08,15.08,0,0,0-3.91,8.63Z"></path><path class="f351a2a1-0bd3-4ba4-8534-f52e5c327e77" d="M766,54.22a4.29,4.29,0,0,1-.77.77,1.73,1.73,0,0,1-1.07.28,2.57,2.57,0,0,1-1.47-.54,18,18,0,0,0-1.92-1.18,17.06,17.06,0,0,0-2.8-1.19,14.72,14.72,0,0,0-9.61.59,10.71,10.71,0,0,0-4,3.24,14.75,14.75,0,0,0-2.43,5.12,25.41,25.41,0,0,0-.83,6.79A25.2,25.2,0,0,0,742,75a15,15,0,0,0,2.5,5.12,10.44,10.44,0,0,0,3.94,3.15,12,12,0,0,0,5.16,1.08,13.06,13.06,0,0,0,4.55-.68,14.51,14.51,0,0,0,3-1.47,21.54,21.54,0,0,0,2-1.46,2.41,2.41,0,0,1,1.62-.68,1.85,1.85,0,0,1,1.61.79L768.73,84a16.39,16.39,0,0,1-3.43,3.19,19.66,19.66,0,0,1-4,2.15,23,23,0,0,1-4.48,1.22A28.9,28.9,0,0,1,752,91a19.73,19.73,0,0,1-7.77-1.53A17.66,17.66,0,0,1,738,85a21.53,21.53,0,0,1-4.18-7.2,28.6,28.6,0,0,1-1.53-9.69A29.16,29.16,0,0,1,733.66,59a20.45,20.45,0,0,1,4.07-7.24,18.68,18.68,0,0,1,6.63-4.77,22.24,22.24,0,0,1,9-1.73,21.54,21.54,0,0,1,8.41,1.53,20.53,20.53,0,0,1,6.47,4.33Z"></path><path class="f351a2a1-0bd3-4ba4-8534-f52e5c327e77" d="M787.24,32.17a5.41,5.41,0,0,1-.48,2.25,6.17,6.17,0,0,1-1.29,1.88A5.95,5.95,0,0,1,781.29,38a5.46,5.46,0,0,1-2.23-.46,6,6,0,0,1-3.13-3.15,5.73,5.73,0,0,1-.46-2.25,5.9,5.9,0,0,1,.46-2.3,6,6,0,0,1,3.13-3.15,5.46,5.46,0,0,1,2.23-.46,5.77,5.77,0,0,1,2.28.46,5.92,5.92,0,0,1,1.9,1.27,6.29,6.29,0,0,1,1.29,1.88A5.58,5.58,0,0,1,787.24,32.17Zm-1.61,13.74V90.37h-8.54V45.91Z"></path><path class="f351a2a1-0bd3-4ba4-8534-f52e5c327e77" d="M824.22,53.57a2.36,2.36,0,0,1-.74.81,1.91,1.91,0,0,1-1,.24,3.24,3.24,0,0,1-1.55-.48c-.57-.32-1.25-.67-2.06-1A19.57,19.57,0,0,0,816,52a13.6,13.6,0,0,0-3.85-.49,11.69,11.69,0,0,0-3.35.46,8.07,8.07,0,0,0-2.56,1.27,5.64,5.64,0,0,0-1.62,1.93,5.16,5.16,0,0,0-.57,2.38,4,4,0,0,0,1,2.76,8.32,8.32,0,0,0,2.58,1.88,24.77,24.77,0,0,0,3.63,1.42c1.36.43,2.74.87,4.16,1.34s2.8,1,4.16,1.6a15.44,15.44,0,0,1,3.63,2.23A10.4,10.4,0,0,1,825.82,72a9.73,9.73,0,0,1,1,4.59,14.7,14.7,0,0,1-1.12,5.75A12.62,12.62,0,0,1,822.41,87a15.65,15.65,0,0,1-5.36,3,22.52,22.52,0,0,1-7.31,1.09,23,23,0,0,1-8.49-1.53,21.29,21.29,0,0,1-6.52-3.89l2-3.29a2.67,2.67,0,0,1,.88-.94,2.59,2.59,0,0,1,1.4-.33,3,3,0,0,1,1.7.62c.59.41,1.29.85,2.1,1.33a15.8,15.8,0,0,0,3,1.31,13.7,13.7,0,0,0,4.38.6,12,12,0,0,0,3.8-.55,8,8,0,0,0,2.7-1.49,6.06,6.06,0,0,0,1.59-2.17,6.44,6.44,0,0,0,.53-2.58,4.35,4.35,0,0,0-1-2.91,8.43,8.43,0,0,0-2.58-2,21,21,0,0,0-3.65-1.44q-2.05-.61-4.2-1.32a40.58,40.58,0,0,1-4.21-1.62,14.51,14.51,0,0,1-3.65-2.31A10.47,10.47,0,0,1,796,58.25a11.81,11.81,0,0,1,1.08-5,12.22,12.22,0,0,1,3.1-4.15,15.39,15.39,0,0,1,5-2.87A20.35,20.35,0,0,1,812,45.21a21.77,21.77,0,0,1,8,1.4,18.38,18.38,0,0,1,6.11,3.85Z"></path><path class="f351a2a1-0bd3-4ba4-8534-f52e5c327e77" d="M846.59,32.17a5.41,5.41,0,0,1-.48,2.25,6.38,6.38,0,0,1-1.3,1.88A5.95,5.95,0,0,1,840.64,38a5.48,5.48,0,0,1-2.24-.46,6,6,0,0,1-3.13-3.15,5.72,5.72,0,0,1-.45-2.25,5.9,5.9,0,0,1,.45-2.3,6,6,0,0,1,3.13-3.15,5.48,5.48,0,0,1,2.24-.46,5.76,5.76,0,0,1,2.27.46,5.92,5.92,0,0,1,1.9,1.27,6.51,6.51,0,0,1,1.3,1.88A5.58,5.58,0,0,1,846.59,32.17ZM845,45.91V90.37h-8.54V45.91Z"></path><path class="f351a2a1-0bd3-4ba4-8534-f52e5c327e77" d="M876.3,45.21a23.38,23.38,0,0,1,8.86,1.6,18.37,18.37,0,0,1,6.74,4.59,20.41,20.41,0,0,1,4.27,7.22,28.49,28.49,0,0,1,1.49,9.48,28.59,28.59,0,0,1-1.49,9.49,20.06,20.06,0,0,1-4.27,7.22,18.59,18.59,0,0,1-6.74,4.58,25.59,25.59,0,0,1-17.76,0,18.88,18.88,0,0,1-6.77-4.58,20.43,20.43,0,0,1-4.31-7.22,28.33,28.33,0,0,1-1.51-9.49,28.22,28.22,0,0,1,1.51-9.48,20.79,20.79,0,0,1,4.31-7.22,18.65,18.65,0,0,1,6.77-4.59A23.48,23.48,0,0,1,876.3,45.21Zm0,39.12q6.3,0,9.41-4.24t3.11-12q0-7.7-3.11-12T876.3,51.9q-6.39,0-9.52,4.27t-3.13,12q0,7.71,3.13,12T876.3,84.33Z"></path><path class="f351a2a1-0bd3-4ba4-8534-f52e5c327e77" d="M915.16,52.08a30.45,30.45,0,0,1,3-2.8,19,19,0,0,1,3.35-2.17,18,18,0,0,1,3.81-1.4,18.28,18.28,0,0,1,4.35-.5,16,16,0,0,1,6.46,1.22,13,13,0,0,1,4.66,3.44,14.91,14.91,0,0,1,2.84,5.32,23.19,23.19,0,0,1,1,6.87V90.37H936V62.06c0-3.18-.73-5.66-2.19-7.42S930.16,52,927.15,52A12.66,12.66,0,0,0,921,53.55a20.27,20.27,0,0,0-5.31,4.22v32.6h-8.54V45.91h5.12a2.1,2.1,0,0,1,2.24,1.71Z"></path></svg>